<?xml version="1.0" standalone="no"?>
<svg xmlns:xlink="http://www.w3.org/1999/xlink" id="wave" style="transform:rotate(180deg); transition: 0.3s" viewBox="0 0 1440 130" version="1.1" xmlns="http://www.w3.org/2000/svg"><defs><linearGradient id="sw-gradient-0" x1="0" x2="0" y1="1" y2="0"><stop stop-color="rgba(23.178, 113.86, 221.168, 1)" offset="0%"/><stop stop-color="rgba(11, 238.469, 255, 1)" offset="100%"/></linearGradient></defs><path style="transform:translate(0, 0px); opacity:1" fill="url(#sw-gradient-0)" d="M0,117L40,110.5C80,104,160,91,240,78C320,65,400,52,480,54.2C560,56,640,74,720,82.3C800,91,880,91,960,95.3C1040,100,1120,108,1200,99.7C1280,91,1360,65,1440,45.5C1520,26,1600,13,1680,8.7C1760,4,1840,9,1920,23.8C2000,39,2080,65,2160,82.3C2240,100,2320,108,2400,106.2C2480,104,2560,91,2640,71.5C2720,52,2800,26,2880,28.2C2960,30,3040,61,3120,60.7C3200,61,3280,30,3360,15.2C3440,0,3520,0,3600,0C3680,0,3760,0,3840,10.8C3920,22,4000,43,4080,54.2C4160,65,4240,65,4320,65C4400,65,4480,65,4560,54.2C4640,43,4720,22,4800,21.7C4880,22,4960,43,5040,58.5C5120,74,5200,82,5280,75.8C5360,69,5440,48,5520,49.8C5600,52,5680,78,5720,91L5760,104L5760,130L5720,130C5680,130,5600,130,5520,130C5440,130,5360,130,5280,130C5200,130,5120,130,5040,130C4960,130,4880,130,4800,130C4720,130,4640,130,4560,130C4480,130,4400,130,4320,130C4240,130,4160,130,4080,130C4000,130,3920,130,3840,130C3760,130,3680,130,3600,130C3520,130,3440,130,3360,130C3280,130,3200,130,3120,130C3040,130,2960,130,2880,130C2800,130,2720,130,2640,130C2560,130,2480,130,2400,130C2320,130,2240,130,2160,130C2080,130,2000,130,1920,130C1840,130,1760,130,1680,130C1600,130,1520,130,1440,130C1360,130,1280,130,1200,130C1120,130,1040,130,960,130C880,130,800,130,720,130C640,130,560,130,480,130C400,130,320,130,240,130C160,130,80,130,40,130L0,130Z"/></svg>