<?xml version="1.0" standalone="no"?>
<svg xmlns:xlink="http://www.w3.org/1999/xlink" id="wave" style="transform:rotate(180deg); transition: 0.3s" viewBox="0 1 1424 100" version="1.1" xmlns="http://www.w3.org/2000/svg"><defs><linearGradient id="sw-gradient-0" x1="0" x2="0" y1="1" y2="0"><stop stop-color="rgba(23.178, 14, 10, 0.9)" offset="0%"/><stop stop-color="rgba(11, 238.469, 255, 1)" offset="100%"/></linearGradient></defs><path style="transform:translate(0, 0px); opacity:1" fill="url(#sw-gradient-0)" d="M0,90L21.8,85C43.6,80,87,70,131,60C174.5,50,218,40,262,41.7C305.5,43,349,57,393,63.3C436.4,70,480,70,524,73.3C567.3,77,611,83,655,76.7C698.2,70,742,50,785,35C829.1,20,873,10,916,6.7C960,3,1004,7,1047,18.3C1090.9,30,1135,50,1178,63.3C1221.8,77,1265,83,1309,81.7C1352.7,80,1396,70,1440,55C1483.6,40,1527,20,1571,21.7C1614.5,23,1658,47,1702,46.7C1745.5,47,1789,23,1833,11.7C1876.4,0,1920,0,1964,0C2007.3,0,2051,0,2095,8.3C2138.2,17,2182,33,2225,41.7C2269.1,50,2313,50,2356,50C2400,50,2444,50,2487,41.7C2530.9,33,2575,17,2618,16.7C2661.8,17,2705,33,2749,45C2792.7,57,2836,63,2880,58.3C2923.6,53,2967,37,3011,38.3C3054.5,40,3098,60,3120,70L3141.8,80L3141.8,100L3120,100C3098.2,100,3055,100,3011,100C2967.3,100,2924,100,2880,100C2836.4,100,2793,100,2749,100C2705.5,100,2662,100,2618,100C2574.5,100,2531,100,2487,100C2443.6,100,2400,100,2356,100C2312.7,100,2269,100,2225,100C2181.8,100,2138,100,2095,100C2050.9,100,2007,100,1964,100C1920,100,1876,100,1833,100C1789.1,100,1745,100,1702,100C1658.2,100,1615,100,1571,100C1527.3,100,1484,100,1440,100C1396.4,100,1353,100,1309,100C1265.5,100,1222,100,1178,100C1134.5,100,1091,100,1047,100C1003.6,100,960,100,916,100C872.7,100,829,100,785,100C741.8,100,698,100,655,100C610.9,100,567,100,524,100C480,100,436,100,393,100C349.1,100,305,100,262,100C218.2,100,175,100,131,100C87.3,100,44,100,22,100L0,100Z"/></svg>