<?xml version="1.0" standalone="no"?>
<svg xmlns:xlink="http://www.w3.org/1999/xlink" id="wave" style="transform:rotate(180deg); transition: 0.3s" viewBox="0 0 1440 130" version="1.1" xmlns="http://www.w3.org/2000/svg"><defs><linearGradient id="sw-gradient-0" x1="0" x2="0" y1="1" y2="0"><stop stop-color="rgba(62, 181.687, 243, 0.5)" offset="0%"/><stop stop-color="rgba(171.079, 157.071, 126.106, 1)" offset="100%"/></linearGradient></defs><path style="transform:translate(0, 0px); opacity:1" fill="url(#sw-gradient-0)" d="M0,0L21.8,19.5C43.6,39,87,78,131,86.7C174.5,95,218,74,262,58.5C305.5,43,349,35,393,43.3C436.4,52,480,78,524,82.3C567.3,87,611,69,655,54.2C698.2,39,742,26,785,26C829.1,26,873,39,916,43.3C960,48,1004,43,1047,34.7C1090.9,26,1135,13,1178,23.8C1221.8,35,1265,69,1309,80.2C1352.7,91,1396,78,1440,62.8C1483.6,48,1527,30,1571,23.8C1614.5,17,1658,22,1702,21.7C1745.5,22,1789,17,1833,28.2C1876.4,39,1920,65,1964,75.8C2007.3,87,2051,82,2095,67.2C2138.2,52,2182,26,2225,23.8C2269.1,22,2313,43,2356,58.5C2400,74,2444,82,2487,80.2C2530.9,78,2575,65,2618,60.7C2661.8,56,2705,61,2749,52C2792.7,43,2836,22,2880,30.3C2923.6,39,2967,78,3011,97.5C3054.5,117,3098,117,3120,117L3141.8,117L3141.8,130L3120,130C3098.2,130,3055,130,3011,130C2967.3,130,2924,130,2880,130C2836.4,130,2793,130,2749,130C2705.5,130,2662,130,2618,130C2574.5,130,2531,130,2487,130C2443.6,130,2400,130,2356,130C2312.7,130,2269,130,2225,130C2181.8,130,2138,130,2095,130C2050.9,130,2007,130,1964,130C1920,130,1876,130,1833,130C1789.1,130,1745,130,1702,130C1658.2,130,1615,130,1571,130C1527.3,130,1484,130,1440,130C1396.4,130,1353,130,1309,130C1265.5,130,1222,130,1178,130C1134.5,130,1091,130,1047,130C1003.6,130,960,130,916,130C872.7,130,829,130,785,130C741.8,130,698,130,655,130C610.9,130,567,130,524,130C480,130,436,130,393,130C349.1,130,305,130,262,130C218.2,130,175,130,131,130C87.3,130,44,130,22,130L0,130Z"/><defs><linearGradient id="sw-gradient-1" x1="0" x2="0" y1="1" y2="0"><stop stop-color="rgba(243, 106, 62, 1)" offset="0%"/><stop stop-color="rgba(90.282, 82.529, 148.311, 1)" offset="100%"/></linearGradient></defs><path style="transform:translate(0, 50px); opacity:0.9" fill="url(#sw-gradient-1)" d="M0,78L21.8,71.5C43.6,65,87,52,131,41.2C174.5,30,218,22,262,17.3C305.5,13,349,13,393,19.5C436.4,26,480,39,524,36.8C567.3,35,611,17,655,17.3C698.2,17,742,35,785,43.3C829.1,52,873,52,916,56.3C960,61,1004,69,1047,73.7C1090.9,78,1135,78,1178,65C1221.8,52,1265,26,1309,28.2C1352.7,30,1396,61,1440,69.3C1483.6,78,1527,65,1571,58.5C1614.5,52,1658,52,1702,49.8C1745.5,48,1789,43,1833,41.2C1876.4,39,1920,39,1964,32.5C2007.3,26,2051,13,2095,6.5C2138.2,0,2182,0,2225,6.5C2269.1,13,2313,26,2356,34.7C2400,43,2444,48,2487,45.5C2530.9,43,2575,35,2618,43.3C2661.8,52,2705,78,2749,84.5C2792.7,91,2836,78,2880,65C2923.6,52,2967,39,3011,45.5C3054.5,52,3098,78,3120,91L3141.8,104L3141.8,130L3120,130C3098.2,130,3055,130,3011,130C2967.3,130,2924,130,2880,130C2836.4,130,2793,130,2749,130C2705.5,130,2662,130,2618,130C2574.5,130,2531,130,2487,130C2443.6,130,2400,130,2356,130C2312.7,130,2269,130,2225,130C2181.8,130,2138,130,2095,130C2050.9,130,2007,130,1964,130C1920,130,1876,130,1833,130C1789.1,130,1745,130,1702,130C1658.2,130,1615,130,1571,130C1527.3,130,1484,130,1440,130C1396.4,130,1353,130,1309,130C1265.5,130,1222,130,1178,130C1134.5,130,1091,130,1047,130C1003.6,130,960,130,916,130C872.7,130,829,130,785,130C741.8,130,698,130,655,130C610.9,130,567,130,524,130C480,130,436,130,393,130C349.1,130,305,130,262,130C218.2,130,175,130,131,130C87.3,130,44,130,22,130L0,130Z"/></svg>