<?xml version="1.0" standalone="no"?>
<svg xmlns:xlink="http://www.w3.org/1999/xlink" id="wave" style="transform:rotate(180deg); transition: 0.3s" viewBox="0 0 1440 130" version="1.1" xmlns="http://www.w3.org/2000/svg">
    <defs>
        <linearGradient id="sw-gradient-0" x1="0" x2="0" y1="0" y2="0">
            <stop stop-color="rgba(209,13,88,0.9)" offset="0%"/>
            <stop stop-color="rgba(14, 141, 232, 0.4)" offset="100%"/>
        </linearGradient>
    </defs>
    <path style="transform:translate(0, 0px); opacity:1" fill="url(#sw-gradient-0)" d="M0,91L40,80.2C80,69,160,48,240,39C320,30,400,35,480,30.3C560,26,640,13,720,23.8C800,35,880,69,960,82.3C1040,95,1120,87,1200,73.7C1280,61,1360,43,1440,43.3C1520,43,1600,61,1680,73.7C1760,87,1840,95,1920,99.7C2000,104,2080,104,2160,95.3C2240,87,2320,69,2400,71.5C2480,74,2560,95,2640,93.2C2720,91,2800,65,2880,47.7C2960,30,3040,22,3120,17.3C3200,13,3280,13,3360,17.3C3440,22,3520,30,3600,34.7C3680,39,3760,39,3840,43.3C3920,48,4000,56,4080,67.2C4160,78,4240,91,4320,93.2C4400,95,4480,87,4560,80.2C4640,74,4720,69,4800,67.2C4880,65,4960,65,5040,56.3C5120,48,5200,30,5280,19.5C5360,9,5440,4,5520,6.5C5600,9,5680,17,5720,21.7L5760,26L5760,130L5720,130C5680,130,5600,130,5520,130C5440,130,5360,130,5280,130C5200,130,5120,130,5040,130C4960,130,4880,130,4800,130C4720,130,4640,130,4560,130C4480,130,4400,130,4320,130C4240,130,4160,130,4080,130C4000,130,3920,130,3840,130C3760,130,3680,130,3600,130C3520,130,3440,130,3360,130C3280,130,3200,130,3120,130C3040,130,2960,130,2880,130C2800,130,2720,130,2640,130C2560,130,2480,130,2400,130C2320,130,2240,130,2160,130C2080,130,2000,130,1920,130C1840,130,1760,130,1680,130C1600,130,1520,130,1440,130C1360,130,1280,130,1200,130C1120,130,1040,130,960,130C880,130,800,130,720,130C640,130,560,130,480,130C400,130,320,130,240,130C160,130,80,130,40,130L0,130Z"/>
    <defs>
        <linearGradient id="sw-gradient-1" x1="0" x2="0" y1="1" y2="0">
            <stop stop-color="rgba(14, 141, 232, 1)" offset="0%"/>
            <stop stop-color="rgba(8.133, 46.815, 43.904, 1)" offset="100%"/>
        </linearGradient>
    </defs>
    <path style="transform:translate(0, 50px); opacity:0.9" fill="url(#sw-gradient-1)" d="M0,26L40,32.5C80,39,160,52,240,60.7C320,69,400,74,480,73.7C560,74,640,69,720,60.7C800,52,880,39,960,39C1040,39,1120,52,1200,65C1280,78,1360,91,1440,80.2C1520,69,1600,35,1680,23.8C1760,13,1840,26,1920,36.8C2000,48,2080,56,2160,52C2240,48,2320,30,2400,21.7C2480,13,2560,13,2640,19.5C2720,26,2800,39,2880,39C2960,39,3040,26,3120,26C3200,26,3280,39,3360,56.3C3440,74,3520,95,3600,88.8C3680,82,3760,48,3840,34.7C3920,22,4000,30,4080,32.5C4160,35,4240,30,4320,30.3C4400,30,4480,35,4560,49.8C4640,65,4720,91,4800,104C4880,117,4960,117,5040,117C5120,117,5200,117,5280,101.8C5360,87,5440,56,5520,41.2C5600,26,5680,26,5720,26L5760,26L5760,130L5720,130C5680,130,5600,130,5520,130C5440,130,5360,130,5280,130C5200,130,5120,130,5040,130C4960,130,4880,130,4800,130C4720,130,4640,130,4560,130C4480,130,4400,130,4320,130C4240,130,4160,130,4080,130C4000,130,3920,130,3840,130C3760,130,3680,130,3600,130C3520,130,3440,130,3360,130C3280,130,3200,130,3120,130C3040,130,2960,130,2880,130C2800,130,2720,130,2640,130C2560,130,2480,130,2400,130C2320,130,2240,130,2160,130C2080,130,2000,130,1920,130C1840,130,1760,130,1680,130C1600,130,1520,130,1440,130C1360,130,1280,130,1200,130C1120,130,1040,130,960,130C880,130,800,130,720,130C640,130,560,130,480,130C400,130,320,130,240,130C160,130,80,130,40,130L0,130Z"/>
</svg>