<?xml version="1.0" standalone="no"?><svg xmlns="http://www.w3.org/2000/svg" viewBox="0 0 1440 320"><path fill="#000000" fill-opacity="0.5" d="M0,0L26.7,32C53.3,64,107,128,160,165.3C213.3,203,267,213,320,197.3C373.3,181,427,139,480,112C533.3,85,587,75,640,74.7C693.3,75,747,85,800,80C853.3,75,907,53,960,48C1013.3,43,1067,53,1120,48C1173.3,43,1227,21,1280,16C1333.3,11,1387,21,1413,26.7L1440,32L1440,0L1413.3,0C1386.7,0,1333,0,1280,0C1226.7,0,1173,0,1120,0C1066.7,0,1013,0,960,0C906.7,0,853,0,800,0C746.7,0,693,0,640,0C586.7,0,533,0,480,0C426.7,0,373,0,320,0C266.7,0,213,0,160,0C106.7,0,53,0,27,0L0,0Z"></path></svg>