<?xml version="1.0" standalone="no"?>
<svg xmlns:xlink="http://www.w3.org/1999/xlink" id="wave" style="transform:rotate(180deg); transition: 0.3s" viewBox="0 0 1440 100" version="1.1" xmlns="http://www.w3.org/2000/svg">
    <defs>
        <linearGradient id="sw-gradient-0" x1="0" x2="0" y1="0" y2="0">
            <stop stop-color="rgba(11, 19, 76,1)" offset="0%"/>
            <stop stop-color="rgba(11, 19, 76,1)" offset="100%"/>
        </linearGradient>
    </defs>
    <path style="transform:translate(0, 0px); opacity:1" fill="url(#sw-gradient-0)" d="M0,40L26.7,33.3C53.3,27,107,13,160,18.3C213.3,23,267,47,320,55C373.3,63,427,57,480,45C533.3,33,587,17,640,10C693.3,3,747,7,800,8.3C853.3,10,907,10,960,13.3C1013.3,17,1067,23,1120,21.7C1173.3,20,1227,10,1280,10C1333.3,10,1387,20,1440,28.3C1493.3,37,1547,43,1600,53.3C1653.3,63,1707,77,1760,68.3C1813.3,60,1867,30,1920,18.3C1973.3,7,2027,13,2080,18.3C2133.3,23,2187,27,2240,26.7C2293.3,27,2347,23,2400,21.7C2453.3,20,2507,20,2560,31.7C2613.3,43,2667,67,2720,66.7C2773.3,67,2827,43,2880,36.7C2933.3,30,2987,40,3040,48.3C3093.3,57,3147,63,3200,68.3C3253.3,73,3307,77,3360,76.7C3413.3,77,3467,73,3520,68.3C3573.3,63,3627,57,3680,58.3C3733.3,60,3787,70,3813,75L3840,80L3840,100L3813.3,100C3786.7,100,3733,100,3680,100C3626.7,100,3573,100,3520,100C3466.7,100,3413,100,3360,100C3306.7,100,3253,100,3200,100C3146.7,100,3093,100,3040,100C2986.7,100,2933,100,2880,100C2826.7,100,2773,100,2720,100C2666.7,100,2613,100,2560,100C2506.7,100,2453,100,2400,100C2346.7,100,2293,100,2240,100C2186.7,100,2133,100,2080,100C2026.7,100,1973,100,1920,100C1866.7,100,1813,100,1760,100C1706.7,100,1653,100,1600,100C1546.7,100,1493,100,1440,100C1386.7,100,1333,100,1280,100C1226.7,100,1173,100,1120,100C1066.7,100,1013,100,960,100C906.7,100,853,100,800,100C746.7,100,693,100,640,100C586.7,100,533,100,480,100C426.7,100,373,100,320,100C266.7,100,213,100,160,100C106.7,100,53,100,27,100L0,100Z"/>
</svg>